<?xml version="1.0" encoding="UTF-8" standalone="no"?>
<svg
   width="155"
   height="64"
   viewBox="0 0 155 64"
   version="1.1"
   id="svg1"
   sodipodi:docname="logo.svg"
   inkscape:version="1.3.2 (091e20e, 2023-11-25)"
   xmlns:inkscape="http://www.inkscape.org/namespaces/inkscape"
   xmlns:sodipodi="http://sodipodi.sourceforge.net/DTD/sodipodi-0.dtd"
   xmlns="http://www.w3.org/2000/svg"
   xmlns:svg="http://www.w3.org/2000/svg"
   xmlns:rdf="http://www.w3.org/1999/02/22-rdf-syntax-ns#"
   xmlns:cc="http://creativecommons.org/ns#"
   xmlns:dc="http://purl.org/dc/elements/1.1/">
  <defs
     id="defs1" />
  <sodipodi:namedview
     id="namedview1"
     pagecolor="#ffffff"
     bordercolor="#000000"
     borderopacity="0.25"
     inkscape:showpageshadow="2"
     inkscape:pageopacity="0.0"
     inkscape:pagecheckerboard="0"
     inkscape:deskcolor="#d1d1d1"
     inkscape:zoom="3"
     inkscape:cx="118.33333"
     inkscape:cy="32"
     inkscape:window-width="1368"
     inkscape:window-height="971"
     inkscape:window-x="0"
     inkscape:window-y="311"
     inkscape:window-maximized="0"
     inkscape:current-layer="g3" />
  <title
     id="title1">logo</title>
  <g
     id="Page-1"
     stroke="none"
     stroke-width="1"
     fill="none"
     fill-rule="evenodd">
    <g
       id="logo"
       transform="translate(2)"
       fill-rule="nonzero">
      <g
         id="g2"
         transform="matrix(0.95722809,0,0,0.95722809,91.15314,12.405941)">
        <path
           d="M 18.804001,34.033332 -1.3653321,37.769198 -15.085332,21.271866 V 3.5453327 L 4.2506678,-10.666667 H 36.754667 L 57.376,6.8797326 V 24.195866 l -26.412,7.505199"
           style="fill:none;stroke:#414141;stroke-width:2.66667;stroke-linecap:round;stroke-linejoin:round;stroke-miterlimit:10;stroke-dasharray:none;stroke-opacity:1"
           id="path516" />
        <path
           d="M 18.804001,34.033332 39.824,51.018798"
           style="fill:none;stroke:#414141;stroke-width:2.66667;stroke-linecap:round;stroke-linejoin:round;stroke-miterlimit:10;stroke-dasharray:none;stroke-opacity:1"
           id="path518" />
        <path
           d="m 38.309334,35.894265 7.023999,13.986933"
           style="fill:none;stroke:#414141;stroke-width:2.66667;stroke-linecap:round;stroke-linejoin:round;stroke-miterlimit:10;stroke-dasharray:none;stroke-opacity:1"
           id="path520" />
        <path
           d="m 49.049333,26.895865 -1.382666,11.037467 -5.872,2.012"
           style="fill:none;stroke:#414141;stroke-width:2.66667;stroke-linecap:round;stroke-linejoin:round;stroke-miterlimit:10;stroke-dasharray:none;stroke-opacity:1"
           id="path522" />
        <path
           d="M 4.2506678,-10.666667 9.676001,8.8265326"
           style="fill:none;stroke:#414141;stroke-width:2.66667;stroke-linecap:round;stroke-linejoin:round;stroke-miterlimit:10;stroke-dasharray:none;stroke-opacity:1"
           id="path524" />
        <path
           d="M 9.676001,8.8265326 -15.085332,3.5453327"
           style="fill:none;stroke:#414141;stroke-width:2.66667;stroke-linecap:round;stroke-linejoin:round;stroke-miterlimit:10;stroke-dasharray:none;stroke-opacity:1"
           id="path526" />
        <path
           d="M 9.676001,8.8265326 36.056,-10.666667"
           style="fill:none;stroke:#414141;stroke-width:2.66667;stroke-linecap:round;stroke-linejoin:round;stroke-miterlimit:10;stroke-dasharray:none;stroke-opacity:1"
           id="path528" />
        <path
           d="M 9.676001,8.8265326 34.454667,14.762532"
           style="fill:none;stroke:#414141;stroke-width:2.66667;stroke-linecap:round;stroke-linejoin:round;stroke-miterlimit:10;stroke-dasharray:none;stroke-opacity:1"
           id="path530" />
        <path
           d="M 34.454667,14.762532 34.901334,-9.8120003"
           style="fill:none;stroke:#414141;stroke-width:2.66667;stroke-linecap:round;stroke-linejoin:round;stroke-miterlimit:10;stroke-dasharray:none;stroke-opacity:1"
           id="path532" />
        <path
           d="M 34.454667,14.762532 57.376,6.8797326"
           style="fill:none;stroke:#414141;stroke-width:2.66667;stroke-linecap:round;stroke-linejoin:round;stroke-miterlimit:10;stroke-dasharray:none;stroke-opacity:1"
           id="path534" />
        <path
           d="M 34.454667,14.762532 57.376,24.195866"
           style="fill:none;stroke:#414141;stroke-width:2.66667;stroke-linecap:round;stroke-linejoin:round;stroke-miterlimit:10;stroke-dasharray:none;stroke-opacity:1"
           id="path536" />
        <path
           d="M 9.676001,8.8265326 -1.3653321,37.769198"
           style="fill:none;stroke:#414141;stroke-width:2.66667;stroke-linecap:round;stroke-linejoin:round;stroke-miterlimit:10;stroke-dasharray:none;stroke-opacity:1"
           id="path538" />
        <path
           d="M 34.454667,14.762532 18.440001,33.810399"
           style="fill:none;stroke:#414141;stroke-width:2.66667;stroke-linecap:round;stroke-linejoin:round;stroke-miterlimit:10;stroke-dasharray:none;stroke-opacity:1"
           id="path540" />
        <path
           d="m 14.258668,8.8265326 c 0,2.5307994 -2.052,4.5813334 -4.582667,4.5813334 -2.5293333,0 -4.5813332,-2.050534 -4.5813332,-4.5813334 0,-2.5306666 2.0519999,-4.5811999 4.5813332,-4.5811999 2.530667,0 4.582667,2.0505333 4.582667,4.5811999"
           style="fill:#ffffff;fill-opacity:1;fill-rule:nonzero;stroke:none;stroke-width:0.133333"
           id="path542" />
        <path
           d="m 14.258668,8.8265326 c 0,2.5307994 -2.052,4.5813334 -4.582667,4.5813334 -2.5293333,0 -4.5813332,-2.050534 -4.5813332,-4.5813334 0,-2.5306666 2.0519999,-4.5811999 4.5813332,-4.5811999 2.530667,0 4.582667,2.0505333 4.582667,4.5811999 z"
           style="fill:none;stroke:#414141;stroke-width:2.66667;stroke-linecap:round;stroke-linejoin:round;stroke-miterlimit:10;stroke-dasharray:none;stroke-opacity:1"
           id="path544" />
        <path
           d="m -10.503999,2.894266 c 0,2.5297333 -2.050666,4.5802666 -4.581333,4.5802666 -2.530666,0 -4.581333,-2.0505333 -4.581333,-4.5802666 0,-2.53173323 2.050667,-4.5822665 4.581333,-4.5822665 2.530667,0 4.581333,2.05053327 4.581333,4.5822665"
           style="fill:#ffffff;fill-opacity:1;fill-rule:nonzero;stroke:none;stroke-width:0.133333"
           id="path546" />
        <path
           d="m -10.503999,2.894266 c 0,2.5297333 -2.050666,4.5802666 -4.581333,4.5802666 -2.530666,0 -4.581333,-2.0505333 -4.581333,-4.5802666 0,-2.53173323 2.050667,-4.5822665 4.581333,-4.5822665 2.530667,0 4.581333,2.05053327 4.581333,4.5822665 z"
           style="fill:none;stroke:#414141;stroke-width:2.66667;stroke-linecap:round;stroke-linejoin:round;stroke-miterlimit:10;stroke-dasharray:none;stroke-opacity:1"
           id="path548" />
        <path
           d="m 3.7400011,36.397332 c 0,2.5292 -2.0506666,4.579733 -4.58133319,4.579733 -2.53066661,0 -4.58133321,-2.050533 -4.58133321,-4.579733 0,-2.532267 2.0506666,-4.5828 4.58133321,-4.5828 2.53066659,0 4.58133319,2.050533 4.58133319,4.5828"
           style="fill:#ffffff;fill-opacity:1;fill-rule:nonzero;stroke:none;stroke-width:0.133333"
           id="path550" />
        <path
           d="m 3.7400011,36.397332 c 0,2.5292 -2.0506666,4.579733 -4.58133319,4.579733 -2.53066661,0 -4.58133321,-2.050533 -4.58133321,-4.579733 0,-2.532267 2.0506666,-4.5828 4.58133321,-4.5828 2.53066659,0 4.58133319,2.050533 4.58133319,4.5828 z"
           style="fill:none;stroke:#414141;stroke-width:2.66667;stroke-linecap:round;stroke-linejoin:round;stroke-miterlimit:10;stroke-dasharray:none;stroke-opacity:1"
           id="path552" />
        <path
           d="m 39.036,14.762532 c 0,2.530667 -2.052,4.5812 -4.581333,4.5812 -2.530667,0 -4.581333,-2.050533 -4.581333,-4.5812 0,-2.5308 2.050666,-4.581333 4.581333,-4.581333 2.529333,0 4.581333,2.050533 4.581333,4.581333"
           style="fill:#ffffff;fill-opacity:1;fill-rule:nonzero;stroke:none;stroke-width:0.133333"
           id="path554" />
        <path
           d="m 39.036,14.762532 c 0,2.530667 -2.052,4.5812 -4.581333,4.5812 -2.530667,0 -4.581333,-2.050533 -4.581333,-4.5812 0,-2.5308 2.050666,-4.581333 4.581333,-4.581333 2.529333,0 4.581333,2.050533 4.581333,4.581333 z"
           style="fill:none;stroke:#414141;stroke-width:2.66667;stroke-linecap:round;stroke-linejoin:round;stroke-miterlimit:10;stroke-dasharray:none;stroke-opacity:1"
           id="path556" />
      </g>
      <g
         id="g3"
         transform="translate(-18.333333,6.6666667)">
        <text
           xml:space="preserve"
           style="font-style:normal;font-variant:normal;font-weight:300;font-stretch:normal;font-size:47.7877px;font-family:'.Apple SD Gothic NeoI';-inkscape-font-specification:'.Apple SD Gothic NeoI, Light';font-variant-ligatures:normal;font-variant-caps:normal;font-variant-numeric:normal;font-variant-east-asian:normal;text-align:center;text-anchor:middle;fill:#070d65;fill-opacity:1;stroke-width:4.59496"
           x="58.690014"
           y="46.405964"
           id="text1-9"><tspan
             sodipodi:role="line"
             id="tspan2"
             x="58.690014"
             y="46.405964">3</tspan></text>
        <text
           xml:space="preserve"
           style="font-size:47.7877px;font-family:sans-serif;-inkscape-font-specification:sans-serif;text-align:center;text-anchor:middle;fill:#070d65;stroke-width:4.59496;fill-opacity:1"
           x="31.333332"
           y="35.591373"
           id="text1"><tspan
             sodipodi:role="line"
             id="tspan1"
             x="31.333332"
             y="35.591373"
             style="font-style:normal;font-variant:normal;font-weight:300;font-stretch:normal;font-size:47.7877px;font-family:'.Apple SD Gothic NeoI';-inkscape-font-specification:'.Apple SD Gothic NeoI, Light';font-variant-ligatures:normal;font-variant-caps:normal;font-variant-numeric:normal;font-variant-east-asian:normal;stroke-width:4.59496;fill:#070d65;fill-opacity:1">A</tspan></text>
        <text
           xml:space="preserve"
           style="font-style:normal;font-variant:normal;font-weight:300;font-stretch:normal;font-size:47.7877px;font-family:'.Apple SD Gothic NeoI';-inkscape-font-specification:'.Apple SD Gothic NeoI, Light';font-variant-ligatures:normal;font-variant-caps:normal;font-variant-numeric:normal;font-variant-east-asian:normal;text-align:center;text-anchor:middle;fill:#070d65;stroke-width:4.59496;fill-opacity:1"
           x="78.690018"
           y="36.405968"
           id="text1-7"><tspan
             sodipodi:role="line"
             id="tspan3"
             x="78.690018"
             y="36.405968">I</tspan></text>
      </g>
    </g>
  </g>
  <metadata
     id="metadata3">
    <rdf:RDF>
      <cc:Work
         rdf:about="">
        <dc:title>logo</dc:title>
      </cc:Work>
    </rdf:RDF>
  </metadata>
</svg>
