<?xml version="1.0" encoding="UTF-8" standalone="no"?>
<!-- Created with Inkscape (http://www.inkscape.org/) -->

<svg
   width="29mm"
   height="29mm"
   viewBox="0 0 29 29"
   version="1.1"
   id="svg1"
   inkscape:version="1.3.2 (091e20e, 2023-11-25)"
   sodipodi:docname="agile.svg"
   xmlns:inkscape="http://www.inkscape.org/namespaces/inkscape"
   xmlns:sodipodi="http://sodipodi.sourceforge.net/DTD/sodipodi-0.dtd"
   xmlns="http://www.w3.org/2000/svg"
   xmlns:svg="http://www.w3.org/2000/svg">
  <sodipodi:namedview
     id="namedview1"
     pagecolor="#ffffff"
     bordercolor="#000000"
     borderopacity="0.25"
     inkscape:showpageshadow="2"
     inkscape:pageopacity="0.0"
     inkscape:pagecheckerboard="0"
     inkscape:deskcolor="#d1d1d1"
     inkscape:document-units="mm"
     inkscape:zoom="0.90714286"
     inkscape:cx="396.85039"
     inkscape:cy="296.53543"
     inkscape:window-width="1368"
     inkscape:window-height="971"
     inkscape:window-x="322"
     inkscape:window-y="586"
     inkscape:window-maximized="0"
     inkscape:current-layer="layer1" />
  <defs
     id="defs1" />
  <g
     inkscape:label="Layer 1"
     inkscape:groupmode="layer"
     id="layer1">
    <path
       d="m 10.066513,7.3374288 c 0.837848,-0.6141861 1.958271,-1.0011833 3.246615,-1.1482916 1.645708,-0.1883833 3.034242,-0.015169 3.996267,0.2197805"
       style="fill:none;stroke:#414141;stroke-width:0.705556;stroke-linecap:round;stroke-linejoin:round;stroke-miterlimit:10;stroke-dasharray:none;stroke-opacity:1"
       id="path456" />
    <path
       d="m 5.5749468,14.441317 c 0.1545167,-1.413229 0.7443611,-3.04271 1.6273639,-4.104572"
       style="fill:none;stroke:#414141;stroke-width:0.705556;stroke-linecap:round;stroke-linejoin:round;stroke-miterlimit:10;stroke-dasharray:none;stroke-opacity:1"
       id="path458" />
    <path
       d="m 21.334942,8.9856066 c 0.549628,0.5249333 1.109133,1.1835694 1.367366,1.5511644 2.610556,3.718632 1.465792,7.915629 0.592667,9.314393"
       style="fill:none;stroke:#414141;stroke-width:0.705556;stroke-linecap:round;stroke-linejoin:round;stroke-miterlimit:10;stroke-dasharray:none;stroke-opacity:1"
       id="path460" />
    <path
       d="m 19.855039,6.8495372 c 0,0.6656916 -0.53975,1.2054416 -1.205442,1.2054416 -0.665691,0 -1.205088,-0.53975 -1.205088,-1.2054416 0,-0.6656917 0.539397,-1.2050889 1.205088,-1.2050889 0.665692,0 1.205442,0.5393972 1.205442,1.2050889 z"
       style="fill:none;stroke:#414141;stroke-width:0.705556;stroke-linecap:round;stroke-linejoin:round;stroke-miterlimit:10;stroke-dasharray:none;stroke-opacity:1"
       id="path462" />
    <path
       d="m 18.649597,21.958658 c 0,0.665692 -0.53975,1.205442 -1.205088,1.205442 -0.666045,0 -1.205442,-0.53975 -1.205442,-1.205442 0,-0.665691 0.539397,-1.205441 1.205442,-1.205441 0.665338,0 1.205088,0.53975 1.205088,1.205441 z"
       style="fill:none;stroke:#414141;stroke-width:0.705556;stroke-linecap:round;stroke-linejoin:round;stroke-miterlimit:10;stroke-dasharray:none;stroke-opacity:1"
       id="path464" />
    <path
       d="m 7.2615773,17.568692 c 0,0.666044 -0.53975,1.205441 -1.2054416,1.205441 -0.6656917,0 -1.2054416,-0.539397 -1.2054416,-1.205441 0,-0.665339 0.5397499,-1.205089 1.2054416,-1.205089 0.6656916,0 1.2054416,0.53975 1.2054416,1.205089 z"
       style="fill:none;stroke:#414141;stroke-width:0.705556;stroke-linecap:round;stroke-linejoin:round;stroke-miterlimit:10;stroke-dasharray:none;stroke-opacity:1"
       id="path466" />
    <path
       d="m 8.9482079,9.2604205 c 0,0.6656916 -0.53975,1.2054415 -1.2054417,1.2054415 -0.6656916,0 -1.2054416,-0.5397499 -1.2054416,-1.2054415 0,-0.6656917 0.53975,-1.2054417 1.2054416,-1.2054417 0.6656917,0 1.2054417,0.53975 1.2054417,1.2054417 z"
       style="fill:none;stroke:#414141;stroke-width:0.705556;stroke-linecap:round;stroke-linejoin:round;stroke-miterlimit:10;stroke-dasharray:none;stroke-opacity:1"
       id="path468" />
    <path
       d="m 18.117961,9.9349316 c 2.0447,1.1415894 3.427589,3.3270484 3.427589,5.8352994 0,2.283883 -1.146175,4.300008 -2.895247,5.504391"
       style="fill:none;stroke:#414141;stroke-width:0.705556;stroke-linecap:round;stroke-linejoin:round;stroke-miterlimit:10;stroke-dasharray:none;stroke-opacity:1"
       id="path470" />
    <path
       d="m 14.867114,9.0917927 c -3.688292,0 -6.6784367,2.9901453 -6.6784367,6.6784383 0,0 -0.038453,1.284816 -0.9271,1.468614"
       style="fill:none;stroke:#414141;stroke-width:0.705556;stroke-linecap:round;stroke-linejoin:round;stroke-miterlimit:10;stroke-dasharray:none;stroke-opacity:1"
       id="path472" />
    <path
       d="M 13.11275,22.215833 C 11.410597,21.753695 9.9783193,20.635036 9.1044884,19.148078"
       style="fill:none;stroke:#414141;stroke-width:0.705556;stroke-linecap:round;stroke-linejoin:round;stroke-miterlimit:10;stroke-dasharray:none;stroke-opacity:1"
       id="path474" />
    <path
       d="m 18.369845,15.604778 c 0,1.93428 -1.56845,3.50273 -3.502731,3.50273 -1.93428,0 -3.502731,-1.56845 -3.502731,-3.50273 0,-1.934281 1.568451,-3.502732 3.502731,-3.502732 1.934281,0 3.502731,1.568451 3.502731,3.502732 z"
       style="fill:none;stroke:#414141;stroke-width:0.705556;stroke-linecap:butt;stroke-linejoin:round;stroke-miterlimit:10;stroke-dasharray:none;stroke-opacity:1"
       id="path476" />
  </g>
</svg>
