<?xml version="1.0" encoding="UTF-8" standalone="no"?>
<!-- Created with Inkscape (http://www.inkscape.org/) -->

<svg
   width="29mm"
   height="29mm"
   viewBox="0 0 29 29"
   version="1.1"
   id="svg1"
   inkscape:version="1.3.2 (091e20e, 2023-11-25)"
   sodipodi:docname="survey copy.svg"
   xmlns:inkscape="http://www.inkscape.org/namespaces/inkscape"
   xmlns:sodipodi="http://sodipodi.sourceforge.net/DTD/sodipodi-0.dtd"
   xmlns="http://www.w3.org/2000/svg"
   xmlns:svg="http://www.w3.org/2000/svg">
  <sodipodi:namedview
     id="namedview1"
     pagecolor="#ffffff"
     bordercolor="#000000"
     borderopacity="0.25"
     inkscape:showpageshadow="2"
     inkscape:pageopacity="0.0"
     inkscape:pagecheckerboard="0"
     inkscape:deskcolor="#d1d1d1"
     inkscape:document-units="mm"
     inkscape:zoom="0.90714286"
     inkscape:cx="377.00787"
     inkscape:cy="296.53543"
     inkscape:window-width="1368"
     inkscape:window-height="971"
     inkscape:window-x="0"
     inkscape:window-y="311"
     inkscape:window-maximized="0"
     inkscape:current-layer="layer1" />
  <defs
     id="defs1" />
  <g
     inkscape:label="Layer 1"
     inkscape:groupmode="layer"
     id="layer1">
    <path
       d="M 13.283237,22.78699 C 11.819713,22.046371 10.370579,21.004633 9.052077,19.686131 4.5474742,15.178207 3.2754695,9.143656 6.2113759,6.2066417 7.8653149,4.5515959 10.501211,4.2327642 13.2932,5.0752327"
       style="fill:none;stroke:#2b2b2b;stroke-width:0.442822;stroke-linecap:round;stroke-linejoin:round;stroke-miterlimit:10;stroke-dasharray:none;stroke-opacity:1"
       id="path418" />
    <path
       d="m 15.355643,5.898881 c 1.496737,0.7428331 2.980189,1.8011768 4.327473,3.1495686 4.505711,4.5068154 5.777716,10.5424734 2.840701,13.4794894 -1.653938,1.655045 -4.289835,1.973877 -7.082933,1.130301"
       style="fill:none;stroke:#2b2b2b;stroke-width:0.442822;stroke-linecap:round;stroke-linejoin:round;stroke-miterlimit:10;stroke-dasharray:none;stroke-opacity:1"
       id="path420" />
    <path
       d="M 5.8493695,13.48995 C 6.5944163,11.954466 7.6715803,10.430053 9.052077,9.0484496 13.556679,4.5416318 19.589016,3.2685203 22.523817,6.2066417 24.21761,7.900434 24.510979,10.623787 23.593232,13.48995"
       style="fill:none;stroke:#2b2b2b;stroke-width:0.442822;stroke-linecap:round;stroke-linejoin:round;stroke-miterlimit:10;stroke-dasharray:none;stroke-opacity:1"
       id="path422" />
    <path
       d="m 22.754084,15.51143 c -0.738404,1.444706 -1.77018,2.872807 -3.070968,4.174701 C 15.178515,24.192947 9.1472837,25.464953 6.2113759,22.527939 4.5585452,20.874 4.2386065,18.238105 5.079967,15.446114"
       style="fill:none;stroke:#2b2b2b;stroke-width:0.442822;stroke-linecap:round;stroke-linejoin:round;stroke-miterlimit:10;stroke-dasharray:none;stroke-opacity:1"
       id="path424" />
    <path
       d="m 17.638388,12.985133 h -6.541583 c -0.238016,0 -0.430644,-0.192627 -0.430644,-0.429537 v -1.903025 c 0,-0.236909 0.192628,-0.429537 0.430644,-0.429537 h 6.541583 c 0.238016,0 0.430643,0.192628 0.430643,0.429537 v 1.903025 c 0,0.23691 -0.192627,0.429537 -0.430643,0.429537 z"
       style="fill:none;stroke:#2b2b2b;stroke-width:0.442822;stroke-linecap:round;stroke-linejoin:round;stroke-miterlimit:10;stroke-dasharray:none;stroke-opacity:1"
       id="path426" />
    <path
       d="m 17.638388,12.985133 c 0.238016,0 0.430643,0.192628 0.430643,0.430644 v 1.903025 c 0,0.23691 -0.192627,0.429538 -0.430643,0.429538 h -6.541583 c -0.238016,0 -0.430644,-0.192628 -0.430644,-0.429538 v -1.903025 c 0,-0.238016 0.192628,-0.430644 0.430644,-0.430644"
       style="fill:none;stroke:#2b2b2b;stroke-width:0.442822;stroke-linecap:round;stroke-linejoin:round;stroke-miterlimit:10;stroke-dasharray:none;stroke-opacity:1"
       id="path428" />
    <path
       d="m 17.638388,15.74834 c 0.238016,0 0.430643,0.192627 0.430643,0.430644 v 1.903025 c 0,0.23691 -0.192627,0.429538 -0.430643,0.429538 h -6.541583 c -0.238016,0 -0.430644,-0.192628 -0.430644,-0.429538 v -1.903025 c 0,-0.238017 0.192628,-0.430644 0.430644,-0.430644"
       style="fill:none;stroke:#2b2b2b;stroke-width:0.442822;stroke-linecap:round;stroke-linejoin:round;stroke-miterlimit:10;stroke-dasharray:none;stroke-opacity:1"
       id="path430" />
  </g>
</svg>
